<svg xmlns="http://www.w3.org/2000/svg" viewBox="0 0 64 64" role="img" aria-label="FastSEO">
  <defs>
    <linearGradient id="bg" x1="8" y1="6" x2="56" y2="58" gradientUnits="userSpaceOnUse">
      <stop stop-color="#0f172a"/>
      <stop offset="0.54" stop-color="#06101f"/>
      <stop offset="1" stop-color="#02040a"/>
    </linearGradient>
    <linearGradient id="accent" x1="16" y1="14" x2="48" y2="50" gradientUnits="userSpaceOnUse">
      <stop stop-color="#58a6ff"/>
      <stop offset="1" stop-color="#2f81f7"/>
    </linearGradient>
  </defs>
  <rect width="64" height="64" rx="14" fill="url(#bg)"/>
  <rect x="5" y="5" width="54" height="54" rx="11" fill="none" stroke="#2f81f7" stroke-opacity="0.45" stroke-width="2"/>
  <path d="M15 40V19h20v5H21v4h12v5H21v7h-6Z" fill="#f3f8ff"/>
  <path d="M37.5 41c-3.9 0-7.1-1.2-9.5-3.5l3.2-4c1.9 1.6 4.1 2.5 6.5 2.5 1.7 0 2.6-.5 2.6-1.5 0-.5-.3-.9-.8-1.1-.5-.3-1.8-.6-3.8-1.1-2.3-.5-4.1-1.3-5.3-2.3-1.2-1-1.8-2.5-1.8-4.4 0-2 .8-3.6 2.3-4.9 1.5-1.3 3.6-1.9 6.3-1.9 3.4 0 6.1.9 8.3 2.8l-2.9 4.2c-1.7-1.3-3.6-2-5.6-2-1.5 0-2.2.5-2.2 1.4 0 .5.3.9.9 1.1.6.3 1.9.6 4 1.1 2.4.6 4.2 1.4 5.3 2.5 1.1 1 1.7 2.4 1.7 4.2 0 2.1-.8 3.8-2.4 5-1.6 1.3-3.9 1.9-6.8 1.9Z" fill="url(#accent)"/>
  <circle cx="48" cy="48" r="5" fill="#58a6ff"/>
  <path d="M52 52l5 5" stroke="#58a6ff" stroke-width="3" stroke-linecap="round"/>
</svg>
